<svg xmlns="http://www.w3.org/2000/svg" width="450" height="500" viewBox="0 0 450 500">
  <metadata><?xpacket begin="﻿" id="W5M0MpCehiHzreSzNTczkc9d"?>
<x:xmpmeta xmlns:x="adobe:ns:meta/" x:xmptk="Adobe XMP Core 5.6-c138 79.159824, 2016/09/14-01:09:01        ">
   <rdf:RDF xmlns:rdf="http://www.w3.org/1999/02/22-rdf-syntax-ns#">
      <rdf:Description rdf:about=""/>
   </rdf:RDF>
</x:xmpmeta>
                                                                                                    
                                                                                                    
                                                                                                    
                                                                                                    
                                                                                                    
                                                                                                    
                                                                                                    
                                                                                                    
                                                                                                    
                                                                                                    
                                                                                                    
                                                                                                    
                                                                                                    
                                                                                                    
                                                                                                    
                                                                                                    
                                                                                                    
                                                                                                    
                                                                                                    
                                                                                                    
                           
<?xpacket end="w"?></metadata>
<defs>
    <style>
      .cls-1 {
        fill: #fff;
        fill-rule: evenodd;
      }
    </style>
  </defs>
  <path class="cls-1" d="M393.017,308.614a57.089,57.089,0,1,1,56.963-57.089A57.026,57.026,0,0,1,393.017,308.614Zm0-86.47a29.382,29.382,0,1,0,29.316,29.381A29.382,29.382,0,0,0,393.017,222.144ZM393.2,80.716A221.549,221.549,0,0,0,249.447,27.711c-122.3,0-221.8,99.718-221.8,222.289s99.5,222.288,221.8,222.288a13.854,13.854,0,0,1,0,27.708C111.9,500,0,387.847,0,250S111.9,0,249.447,0A249.184,249.184,0,0,1,411.133,59.627,13.841,13.841,0,0,1,393.2,80.716ZM249.92,308.065a57.648,57.648,0,0,0,36.949-13.416,13.84,13.84,0,0,1,17.723,21.263,85.512,85.512,0,1,1-.295-131.549,13.84,13.84,0,0,1-17.627,21.343A57.75,57.75,0,1,0,249.92,308.065ZM83.862,250.26c0-91.767,74.494-166.424,166.058-166.424a13.854,13.854,0,0,1,0,27.707c-76.321,0-138.411,62.228-138.411,138.717S173.6,388.978,249.92,388.978a138.348,138.348,0,0,0,88.832-32.331A13.84,13.84,0,0,1,356.5,377.886a165.994,165.994,0,0,1-106.584,38.8C158.356,416.685,83.862,342.027,83.862,250.26Z"/>
</svg>
