<svg xmlns="http://www.w3.org/2000/svg" width="450" height="196" viewBox="0 0 450 196">
  <metadata><?xpacket begin="﻿" id="W5M0MpCehiHzreSzNTczkc9d"?>
<x:xmpmeta xmlns:x="adobe:ns:meta/" x:xmptk="Adobe XMP Core 5.6-c138 79.159824, 2016/09/14-01:09:01        ">
   <rdf:RDF xmlns:rdf="http://www.w3.org/1999/02/22-rdf-syntax-ns#">
      <rdf:Description rdf:about=""/>
   </rdf:RDF>
</x:xmpmeta>
                                                                                                    
                                                                                                    
                                                                                                    
                                                                                                    
                                                                                                    
                                                                                                    
                                                                                                    
                                                                                                    
                                                                                                    
                                                                                                    
                                                                                                    
                                                                                                    
                                                                                                    
                                                                                                    
                                                                                                    
                                                                                                    
                                                                                                    
                                                                                                    
                                                                                                    
                                                                                                    
                           
<?xpacket end="w"?></metadata>
<defs>
    <style>
      .cls-1 {
        fill: #fafafa;
        fill-rule: evenodd;
      }
    </style>
  </defs>
  <path class="cls-1" d="M448.211,130.9H442.03a1.84,1.84,0,0,1-1.779-1.775V67.291a1.84,1.84,0,0,1,1.779-1.775h6.181a1.84,1.84,0,0,1,1.78,1.775v61.838A1.84,1.84,0,0,1,448.211,130.9Zm-27.905.934h-2.435l-40.647-48.2h-0.093v45.492a1.776,1.776,0,0,1-1.78,1.775h-5.9a1.841,1.841,0,0,1-1.78-1.775V66.263a1.76,1.76,0,0,1,1.78-1.682h2.341l40.647,46.893h0.094V67.291a1.776,1.776,0,0,1,1.779-1.775h5.994a1.84,1.84,0,0,1,1.78,1.775v62.867A1.759,1.759,0,0,1,420.306,131.838ZM352.034,128.2a1.767,1.767,0,0,1-1.592,2.709h-7.305a1.723,1.723,0,0,1-1.5-.841l-12.457-24.754H315.04v23.82a1.84,1.84,0,0,1-1.78,1.775h-6.087a1.777,1.777,0,0,1-1.78-1.775V67.291a1.776,1.776,0,0,1,1.78-1.775h25.475a20.182,20.182,0,0,1,20.417,19.99c0,8.594-5.714,15.693-13.861,18.962Zm-8.71-42.5A11.464,11.464,0,0,0,331.9,74.577h-16.67v22.7H331.9A11.619,11.619,0,0,0,343.324,85.692ZM289.476,130.9H252.014a1.776,1.776,0,0,1-1.78-1.775V67.291a1.776,1.776,0,0,1,1.78-1.775h37.462a1.776,1.776,0,0,1,1.78,1.775v5.231a1.776,1.776,0,0,1-1.78,1.775h-29.6V93.352h25.006a1.84,1.84,0,0,1,1.78,1.775v5.231a1.776,1.776,0,0,1-1.78,1.775H259.881v20.083h29.6a1.777,1.777,0,0,1,1.78,1.775v5.138A1.777,1.777,0,0,1,289.476,130.9Zm-71.643-23.727H204.252v21.952a1.839,1.839,0,0,1-1.779,1.775h-6.088a1.776,1.776,0,0,1-1.779-1.775V67.291a1.776,1.776,0,0,1,1.779-1.775h21.354A20.831,20.831,0,1,1,217.833,107.177Zm-0.656-32.321H204.252V98.023h12.925a11.916,11.916,0,0,0,11.9-11.957C229.072,79.714,223.64,74.856,217.177,74.856Zm-62.371,46.121A22.379,22.379,0,1,1,177.243,98.6,22.408,22.408,0,0,1,154.806,120.977Zm0-33.9A11.517,11.517,0,1,0,166.354,98.6,11.545,11.545,0,0,0,154.806,87.081Zm0.073-55.44A87.517,87.517,0,0,0,98.255,10.863C50.081,10.863,10.89,49.952,10.89,98s39.192,87.137,87.365,87.137a5.431,5.431,0,1,1,0,10.861C44.077,196,0,152.036,0,98S44.077,0,98.255,0a98.434,98.434,0,0,1,63.687,23.373A5.437,5.437,0,1,1,154.879,31.641ZM98.442,120.762A22.771,22.771,0,0,0,113,115.5a5.437,5.437,0,1,1,6.982,8.336,33.522,33.522,0,1,1-.117-51.568,5.436,5.436,0,1,1-6.943,8.366A22.686,22.686,0,1,0,98.442,120.762ZM33.033,98.1A65.4,65.4,0,0,1,98.442,32.864a5.431,5.431,0,1,1,0,10.861,54.377,54.377,0,1,0,34.99,96.081,5.436,5.436,0,1,1,6.992,8.325A65.445,65.445,0,0,1,33.033,98.1Z"/>
</svg>
