<svg xmlns="http://www.w3.org/2000/svg" viewBox="0 0 90.55225 18.93848"><title>MilkyWay</title><path d="M.7002,9.60352c0-.75586,1.23242-1.84864,3.02539-1.84864A2,2,0,0,1,5.85547,9.88379a5.67292,5.67292,0,0,1-.168,1.40039l.084.05664C6.668,8.791,7.98438,7.75488,9.58105,7.75488a2.29786,2.29786,0,0,1,2.24122,2.38086,4.58447,4.58447,0,0,1-.13965,1.14844l.084.05664c.98047-2.5498,2.15723-3.58594,3.72559-3.58594,1.42871,0,2.66113,1.06446,2.66113,3.502,0,1.73632-.36328,3.081-.36328,5.29492,0,1.28808.19531,1.625.61621,1.625a2.457,2.457,0,0,0,1.17676-.58887,1.06184,1.06184,0,0,1,.36328.7002c0,.95312-1.03613,1.93359-2.66113,1.93359-1.76465,0-2.85743-.98047-2.85743-3.30566,0-1.20508.36426-2.71778.36426-4.14649,0-1.12109-.30859-1.65332-.84082-1.65332-.75586,0-1.76465,1.5127-2.26855,4.0625.02734,1.00879.28027,2.57715.28027,3.25a1.94306,1.94306,0,0,1-2.0459,1.793c-.78418,0-1.59668-.86914-1.59668-2.68945,0-1.877.36426-3.334.36426-4.7627,0-1.12109-.30762-1.65332-.83984-1.65332-.75684,0-1.68164,1.5127-2.26953,4.0625.02734,1.00879.28027,2.57715.28027,3.25a1.94306,1.94306,0,0,1-2.0459,1.793c-.78418,0-1.59668-.86914-1.59668-2.68945,0-1.877.56055-4.11817.56055-6.16309,0-.89648-.13965-1.31738-.58789-1.31738a2.14287,2.14287,0,0,0-1.06543.33594A.951.951,0,0,1,.7002,9.60352Z" transform="translate(-0.7002 -6.5498)" fill="#231f20"/><path d="M19.38184,12.71289c0-.64355,1.12109-1.73633,2.66113-1.73633a2.35851,2.35851,0,0,1,2.52148,2.54883c0,1.26074-.28027,2.60547-.28027,3.9502,0,.72851.168.9248.50488.9248a1.48972,1.48972,0,0,0,.7002-.19629,1.15067,1.15067,0,0,1,.19629.61621c0,.67285-1.06446,1.40137-2.40918,1.40137a2.207,2.207,0,0,1-2.35352-2.40918c0-1.06445.28028-2.15723.28028-3.44629,0-1.09277-.33692-1.26074-.7002-1.26074a2.2871,2.2871,0,0,0-.84082.19629A.84021.84021,0,0,1,19.38184,12.71289ZM23.332,6.5498a1.41624,1.41624,0,0,1,1.40039,1.5127,1.58309,1.58309,0,0,1-1.54,1.68164A1.41727,1.41727,0,0,1,21.791,8.23047,1.53214,1.53214,0,0,1,23.332,6.5498Z" transform="translate(-0.7002 -6.5498)" fill="#231f20"/><path d="M31.875,18.541c0,.81152-.86816,1.68066-2.26953,1.68066-1.56836,0-2.99707-.95313-2.99707-3.64258a34.86867,34.86867,0,0,1,1.00781-8.60058c.33692-1.12012.53223-1.42872,1.20508-1.42872,1.12012,0,2.38086.89649,2.38086,1.68067a8.4253,8.4253,0,0,1-1.00781,2.8584,21.23834,21.23834,0,0,0-.39258,4.73437c0,2.0166.36426,2.46485.9248,2.46485a1.18113,1.18113,0,0,0,.83985-.36426A.78264.78264,0,0,1,31.875,18.541Z" transform="translate(-0.7002 -6.5498)" fill="#231f20"/><path d="M42.93945,18.26074c0,.89649-1.17675,1.96094-2.57812,1.96094-1.42871,0-2.43653-.72852-3.10938-3.1377a.93663.93663,0,0,1-.70019-.95312,1.72307,1.72307,0,0,1,1.40039-1.48438c.44824,0,.8125.36426,1.14844.8125a1.19007,1.19007,0,0,0,.53222-1.00878,1.05968,1.05968,0,0,0-1.14843-1.09278,3.23218,3.23218,0,0,0-2.88575,3.30567c0,.8125.53321,1.28906.53321,2.01757a1.95707,1.95707,0,0,1-1.90528,1.541c-.78418,0-1.51269-.98047-1.51269-2.01758a71.90464,71.90464,0,0,1,.78418-10.22558c.28027-1.14844.53222-1.42872,1.2041-1.42872,1.12109,0,2.38183.89649,2.38183,1.68067a8.7259,8.7259,0,0,1-.72851,2.5498,14.36262,14.36262,0,0,0-.67285,2.85743l.1123.02832a4.31514,4.31514,0,0,1,3.66992-2.68946A2.44527,2.44527,0,0,1,42.043,13.44141a3.02771,3.02771,0,0,1-2.18555,2.80175l-.02832.084c.7002,1.09277,1.20508,1.42871,1.9336,1.42871a1.28446,1.28446,0,0,0,.83984-.36426A1.30394,1.30394,0,0,1,42.93945,18.26074Z" transform="translate(-0.7002 -6.5498)" fill="#231f20"/><path d="M42.43164,12.48926c0-.67285,1.12109-1.5127,2.54981-1.5127,1.7373,0,2.38085.89649,2.4375,3.86621.05566,2.63282.19628,3.249.56054,3.249.58789,0,1.06446-1.42871,1.14844-4.79.05566-1.93262.33594-2.54981,1.2041-2.54981a2.39121,2.39121,0,0,1,2.2417,2.10157,12.65807,12.65807,0,0,1-.897,3.95019c-.3916,6.16309-2.63281,8.68457-5.85449,8.68457-1.90528,0-3.166-1.09277-3.166-2.46484,0-1.541,1.2041-2.66211,3.66992-3.75489v-.084c-1.00879-.36426-1.7373-1.31641-1.93262-3.502-.16894-2.21289-.5332-2.7168-1.00878-2.7168a1.35749,1.35749,0,0,0-.61622.168A.915.915,0,0,1,42.43164,12.48926Zm6.05176,6.75195a5.83193,5.83193,0,0,1-1.457,1.37207c-1.23242.86914-1.59668,1.59766-1.59668,2.38184,0,.56054.28027.95215.8125.95215,1.12011,0,2.24121-1.90528,2.32519-4.67872Z" transform="translate(-0.7002 -6.5498)" fill="#231f20"/><path d="M53.29932,9.66016c0-.95313,1.457-1.90528,2.80175-1.90528,2.10059,0,2.82911.98047,2.82911,4.65039,0,4.7627.33593,5.43457.75683,5.43457.50391,0,1.34473-1.82031,1.709-5.21093a9.93707,9.93707,0,0,1-.14063-2.01661c.02832-1.373.4209-1.98925,1.12109-1.98925A2.1005,2.1005,0,0,1,64.645,10.52832a15.33652,15.33652,0,0,1-.252,2.18457c0,3.92285.39257,5.12695.89648,5.12695.67285,0,1.68066-1.65234,1.68066-5.43457a16.82558,16.82558,0,0,0-.55957-4.53808l.05567-.11231c1.98926,0,4.14648,1.17676,4.14648,2.77344,0,5.43457-2.71777,9.69336-5.79883,9.69336-1.31738,0-2.35351-.8125-2.63378-2.91406h-.084c-.67285,1.96093-1.76465,2.91406-3.13769,2.91406-1.73731,0-3.1377-1.09277-3.36231-6.5-.13965-3.081-.47558-3.69824-1.03613-3.69824a2.17149,2.17149,0,0,0-.92481.25293A.69636.69636,0,0,1,53.29932,9.66016Z" transform="translate(-0.7002 -6.5498)" fill="#231f20"/><path d="M81.22607,18.82031c0,.67285-1.03613,1.40137-2.15722,1.40137-1.34473,0-1.93262-.84082-2.07324-2.15723H76.8833c-.53223,1.34473-1.31641,2.15723-2.63281,2.15723-1.73731,0-3.22168-1.5127-3.22168-4.03418,0-2.83008,1.96094-5.21094,4.03418-5.21094a2.01209,2.01209,0,0,1,2.04492,1.5127h.1123c.33594-1.31641.78418-1.93262,1.48438-1.93262.89648,0,1.877.78418,1.877,1.37207A4.49938,4.49938,0,0,1,79.937,13.918a26.81439,26.81439,0,0,0-.19531,2.998c0,1.09179.19531,1.48437.58789,1.48437a1.48972,1.48972,0,0,0,.7002-.19629A.954.954,0,0,1,81.22607,18.82031Zm-5.29492-5.60254c-.84082,0-1.541,1.00879-1.541,2.71778,0,1.54.47656,2.04492,1.03711,2.04492.67187,0,1.12011-.84082,1.45605-2.66211l.14063-1.42871A1.33959,1.33959,0,0,0,75.93115,13.21777Z" transform="translate(-0.7002 -6.5498)" fill="#231f20"/><path d="M81.11084,12.48926c0-.67285,1.12109-1.5127,2.5498-1.5127,1.73731,0,2.38086.89649,2.4375,3.86621.05567,2.63282.19629,3.249.55957,3.249.58887,0,1.06543-1.42871,1.14942-4.79.05566-1.93262.33594-2.54981,1.2041-2.54981a2.39072,2.39072,0,0,1,2.24121,2.10157,12.6552,12.6552,0,0,1-.89648,3.95019c-.3916,6.16309-2.63282,8.68457-5.8545,8.68457-1.90527,0-3.166-1.09277-3.166-2.46484,0-1.541,1.2041-2.66211,3.66992-3.75489v-.084c-1.00879-.36426-1.7373-1.31641-1.93359-3.502-.168-2.21289-.53223-2.7168-1.00782-2.7168a1.35749,1.35749,0,0,0-.61621.168A.91137.91137,0,0,1,81.11084,12.48926Zm6.05176,6.75195a5.83211,5.83211,0,0,1-1.457,1.37207c-1.23243.86914-1.59668,1.59766-1.59668,2.38184,0,.56054.28027.95215.8125.95215,1.12011,0,2.24121-1.90528,2.32519-4.67872Z" transform="translate(-0.7002 -6.5498)" fill="#231f20"/></svg>