<svg xmlns="http://www.w3.org/2000/svg" viewBox="0 0 37.50739 37.50739"><title>PortalCircle</title><path d="M18.75372,0A18.7537,18.7537,0,1,0,37.50739,18.75372,18.75372,18.75372,0,0,0,18.75372,0ZM6.0722,20.63757a.47938.47938,0,0,1-.43255-.43261,11.62635,11.62635,0,0,1,3.1535-8.94568,12.254,12.254,0,0,1,4.05933-2.85053,12.688,12.688,0,0,1,4.88714-1.011,8.39616,8.39616,0,0,1,4.94049,1.652,8.16652,8.16652,0,0,1,2.94465,4.23743,8.54978,8.54978,0,0,1,.31854,2.562,5.24582,5.24582,0,0,1-.815,2.58972,4.91676,4.91676,0,0,1-4.48481,2.24451.47906.47906,0,0,1-.01013-.95233l.01026-.00116a3.81183,3.81183,0,0,0,3.05853-2.11627,3.55143,3.55143,0,0,0,.359-1.76471,7.24269,7.24269,0,0,0-.39545-1.926,6.36,6.36,0,0,0-5.92627-4.15142,11.01035,11.01035,0,0,0-7.48993,2.94427,11.76692,11.76692,0,0,0-3.65631,7.4892A.47877.47877,0,0,1,6.0722,20.63757Zm14.57,11.66742a11.6263,11.6263,0,0,1-8.94562-3.1535A12.253,12.253,0,0,1,8.846,25.09222,12.68832,12.68832,0,0,1,7.835,20.205a8.39663,8.39663,0,0,1,1.652-4.94043,8.16664,8.16664,0,0,1,4.23743-2.9447,8.55159,8.55159,0,0,1,2.562-.31855,5.2464,5.2464,0,0,1,2.58972.815,4.91692,4.91692,0,0,1,2.24457,4.48486.47909.47909,0,0,1-.9524.01007l-.00109-.01019a3.812,3.812,0,0,0-2.11634-3.0586,3.5517,3.5517,0,0,0-1.76465-.359,7.24073,7.24073,0,0,0-1.926.39551,6.36,6.36,0,0,0-4.15149,5.92627,11.011,11.011,0,0,0,2.94434,7.48993,11.76745,11.76745,0,0,0,7.48913,3.65631.47875.47875,0,0,1-.00012.95343Zm8.25269-10.06213a8.16586,8.16586,0,0,1-4.23737,2.94464,8.55007,8.55007,0,0,1-2.562.3186,5.24636,5.24636,0,0,1-2.58972-.815,4.917,4.917,0,0,1-2.24457-4.48486.47908.47908,0,0,1,.95239-.01007l.0011.01019A3.81188,3.81188,0,0,0,20.331,23.265a3.55173,3.55173,0,0,0,1.76465.359,7.23993,7.23993,0,0,0,1.926-.39551,6.36,6.36,0,0,0,4.15149-5.92627,11.01087,11.01087,0,0,0-2.94434-7.48993,11.76726,11.76726,0,0,0-7.48914-3.65631.47875.47875,0,0,1,.00013-.95343A11.62628,11.62628,0,0,1,26.68536,8.356,12.253,12.253,0,0,1,29.536,12.41522a12.68856,12.68856,0,0,1,1.011,4.88721A8.39628,8.39628,0,0,1,28.89484,22.24286Z" fill="#231f20"/></svg>