<svg xmlns="http://www.w3.org/2000/svg" viewBox="0 0 37.50739 37.50739"><title>PortalCircleLight</title><path d="M18.75372,0A18.7537,18.7537,0,1,0,37.50739,18.75366,18.75371,18.75371,0,0,0,18.75372,0ZM6.0426,20.73376a.612.612,0,0,1-.52868-.52886,11.59414,11.59414,0,0,1,3.08715-9.13776,12.41566,12.41566,0,0,1,4.13544-2.93823,12.95469,12.95469,0,0,1,5.00318-1.04425,8.68863,8.68863,0,0,1,5.11865,1.72027,8.40408,8.40408,0,0,1,3.02478,4.39844,8.7262,8.7262,0,0,1,.30841,2.64587,5.48141,5.48141,0,0,1-.87445,2.699,5.012,5.012,0,0,1-4.67359,2.261.60676.60676,0,0,1-.02118-1.20184l.02131-.00311a3.71305,3.71305,0,0,0,2.86975-2.09979,3.31046,3.31046,0,0,0,.2995-1.65552,7.07539,7.07539,0,0,0-.40564-1.842,6.111,6.111,0,0,0-5.66791-3.92224A10.84942,10.84942,0,0,0,10.44147,12.908a11.87018,11.87018,0,0,0-3.7226,7.29706A.607.607,0,0,1,6.0426,20.73376Zm14.59955,11.697a11.59391,11.59391,0,0,1-9.13776-3.08716,12.4156,12.4156,0,0,1-2.93823-4.13538A12.95511,12.95511,0,0,1,7.52191,20.205,8.68907,8.68907,0,0,1,9.24213,15.0863a8.40452,8.40452,0,0,1,4.39843-3.02478,8.729,8.729,0,0,1,2.64594-.30841,5.48173,5.48173,0,0,1,2.69891.87445,5.01193,5.01193,0,0,1,2.261,4.67365.60675.60675,0,0,1-1.20184.02112l-.00312-.0213a3.71307,3.71307,0,0,0-2.09985-2.86976,3.31008,3.31008,0,0,0-1.65546-.2995,7.075,7.075,0,0,0-1.842.40564,6.111,6.111,0,0,0-3.92224,5.66791,10.84918,10.84918,0,0,0,2.82337,7.29785,11.87,11.87,0,0,0,7.297,3.7226.607.607,0,0,1-.00012,1.205Zm8.49762-10.00965a8.40493,8.40493,0,0,1-4.39844,3.02484,8.73026,8.73026,0,0,1-2.64593.30841,5.4817,5.4817,0,0,1-2.69892-.87445,5.012,5.012,0,0,1-2.261-4.67364.60675.60675,0,0,1,1.20184-.02112l.00311.02124a3.71288,3.71288,0,0,0,2.09986,2.86975,3.31,3.31,0,0,0,1.65545.2995,7.07288,7.07288,0,0,0,1.842-.40558,6.11116,6.11116,0,0,0,3.92225-5.668,10.84907,10.84907,0,0,0-2.82337-7.29779,11.86989,11.86989,0,0,0-7.297-3.72265.607.607,0,0,1,.00013-1.205A11.59407,11.59407,0,0,1,26.8775,8.16388a12.41532,12.41532,0,0,1,2.93823,4.13538A12.95483,12.95483,0,0,1,30.86,17.30243,8.68887,8.68887,0,0,1,29.13977,22.42108Z" fill="#fff"/></svg>