<svg xmlns="http://www.w3.org/2000/svg" viewBox="0 0 31.53968 34.37653"><title>PortalLight</title><path d="M19.02405,18.42206a4.87233,4.87233,0,0,0,3.86469-2.67492,4.47487,4.47487,0,0,0,.45434-2.2298,9.15154,9.15154,0,0,0-.49981-2.434,8.03772,8.03772,0,0,0-7.4895-5.24658,13.91538,13.91538,0,0,0-9.46564,3.721A14.92717,14.92717,0,0,0,1.2674,19.0224a.60539.60539,0,0,1-1.205-.00012A14.65159,14.65159,0,0,1,4.04774,7.717,15.48553,15.48553,0,0,1,9.1778,4.11451,16.03679,16.03679,0,0,1,15.35413,2.8368a10.61112,10.61112,0,0,1,6.24359,2.08789,10.32029,10.32029,0,0,1,3.72144,5.3551,10.80748,10.80748,0,0,1,.40259,3.23785,6.6448,6.6448,0,0,1-1.0293,3.27326A6.16639,6.16639,0,0,1,19.02393,19.627a.60538.60538,0,0,1-.01233-1.20362Z" fill="#fff"/><path d="M15.95441,19.02405a4.87241,4.87241,0,0,0,2.675,3.86469,4.47447,4.47447,0,0,0,2.22974.45434,9.15156,9.15156,0,0,0,2.434-.49981,8.03766,8.03766,0,0,0,5.24652-7.48951,13.91484,13.91484,0,0,0-3.721-9.46557,14.9268,14.9268,0,0,0-9.4646-4.62079.6054.6054,0,0,1,.00018-1.205,14.65181,14.65181,0,0,1,11.3053,3.98535,15.48649,15.48649,0,0,1,3.60248,5.13,16.03581,16.03581,0,0,1,1.27765,6.17633,10.611,10.611,0,0,1-2.08783,6.24359,10.32024,10.32024,0,0,1-5.35516,3.72144,10.80517,10.80517,0,0,1-3.2378.40258,6.644,6.644,0,0,1-3.27325-1.02929,6.16643,6.16643,0,0,1-2.83618-5.66852.60538.60538,0,0,1,1.20361-.01233Z" fill="#fff"/><path d="M18.42206,15.35242a4.87217,4.87217,0,0,0-2.675-3.86462,4.47374,4.47374,0,0,0-2.22974-.45435,9.15247,9.15247,0,0,0-2.434.49982A8.03759,8.03759,0,0,0,5.8368,19.02271a13.91526,13.91526,0,0,0,3.721,9.46564,14.92716,14.92716,0,0,0,9.4646,4.62072.60543.60543,0,0,1-.00013,1.205A14.65163,14.65163,0,0,1,7.717,30.32874a15.48484,15.48484,0,0,1-3.60248-5.13007A16.03587,16.03587,0,0,1,2.8368,19.02234a10.6115,10.6115,0,0,1,2.08783-6.24359,10.32059,10.32059,0,0,1,5.35516-3.72137,10.80516,10.80516,0,0,1,3.23779-.40259A6.64389,6.64389,0,0,1,16.79084,9.684,6.16646,6.16646,0,0,1,19.627,15.35254a.60538.60538,0,0,1-1.20361.01239Z" fill="#fff"/></svg>