<svg xmlns="http://www.w3.org/2000/svg" viewBox="0 0 32.2822 34.86152"><title>Portal</title><path d="M19.26664,18.46372a4.644,4.644,0,0,0,3.564-2.64807,4.10623,4.10623,0,0,0,.35852-2.05585,8.88424,8.88424,0,0,0-.516-2.3,7.64041,7.64041,0,0,0-7.0769-4.88049,13.65836,13.65836,0,0,0-9.15882,3.52783,15.02213,15.02213,0,0,0-4.72668,9.15778l-.00086.00628A.80991.80991,0,0,1,.1041,19.26474,14.65371,14.65371,0,0,1,3.98356,7.65268,15.74283,15.74283,0,0,1,9.23514,3.91019a16.46107,16.46107,0,0,1,6.36157-1.33087,11.07866,11.07866,0,0,1,6.5282,2.19678,10.70089,10.70089,0,0,1,3.84943,5.6123,11.0906,11.0906,0,0,1,.38635,3.37177,7.00176,7.00176,0,0,1-1.12512,3.4472,6.37811,6.37811,0,0,1-5.96912,2.863.80949.80949,0,0,1-.03174-1.60157Z" fill="#231f20"/><path d="M16.3978,19.26664a4.644,4.644,0,0,0,2.64807,3.564,4.10635,4.10635,0,0,0,2.05585.35852,8.88469,8.88469,0,0,0,2.3-.516,7.64044,7.64044,0,0,0,4.88043-7.0769,13.6586,13.6586,0,0,0-3.52777-9.15882,15.02244,15.02244,0,0,0-9.15784-4.72668l-.00628-.00086A.80991.80991,0,0,1,15.59678.1041,14.65371,14.65371,0,0,1,27.20884,3.98356a15.74384,15.74384,0,0,1,3.74255,5.25158,16.46229,16.46229,0,0,1,1.33081,6.36157,11.07784,11.07784,0,0,1-2.19678,6.5282,10.70093,10.70093,0,0,1-5.6123,3.84943,11.0906,11.0906,0,0,1-3.37177.38635,7.00189,7.00189,0,0,1-3.44714-1.12506,6.37826,6.37826,0,0,1-2.863-5.96918.80949.80949,0,0,1,1.60156-.03174Z" fill="#231f20"/><path d="M18.46372,15.59494a4.64424,4.64424,0,0,0-2.64807-3.564,4.10689,4.10689,0,0,0-2.05585-.35852,8.88606,8.88606,0,0,0-2.3.516,7.64053,7.64053,0,0,0-4.88049,7.0769,13.65814,13.65814,0,0,0,3.52783,9.15882,15.02182,15.02182,0,0,0,9.15778,4.72668l.00628.00086a.80991.80991,0,0,1-.00647,1.60577A14.6535,14.6535,0,0,1,7.65268,30.878a15.74259,15.74259,0,0,1-3.74249-5.25152,16.46136,16.46136,0,0,1-1.33087-6.36163,11.07894,11.07894,0,0,1,2.19678-6.5282,10.70045,10.70045,0,0,1,5.6123-3.84937,11.08878,11.08878,0,0,1,3.37177-.38641A7.003,7.003,0,0,1,17.20737,9.626a6.37821,6.37821,0,0,1,2.863,5.96918.8095.8095,0,0,1-1.60157.03174Z" fill="#231f20"/></svg>